<svg width="180" height="52" viewBox="0 0 180 52" fill="none" xmlns="http://www.w3.org/2000/svg">
<path d="M79.8157 18.3739L83.8299 24.6265C83.925 24.7206 83.9545 24.8822 83.9217 25.1084C83.8955 25.3993 83.7151 25.5433 83.3838 25.5433H80.8782C80.6421 25.5433 80.4781 25.5021 80.3929 25.414C80.2945 25.3435 80.2092 25.2465 80.1305 25.1202L76.5098 19.42C76.2639 19.0057 76.0048 18.7354 75.7359 18.609C75.4735 18.468 75.057 18.3975 74.4896 18.3975H72.1414V24.8146C72.1414 25.1378 72.0529 25.3405 71.8791 25.4257C71.7118 25.5051 71.5806 25.5433 71.4855 25.5433H69.3472C69.2587 25.5433 69.1242 25.5051 68.9406 25.4257C68.7635 25.3405 68.6782 25.1378 68.6782 24.8146V9.08911C68.6782 8.75415 68.7635 8.54847 68.9406 8.47795C69.1242 8.40156 69.2587 8.36042 69.3472 8.36042H71.4855C71.5806 8.36042 71.7118 8.40156 71.8791 8.47795C72.0529 8.54847 72.1414 8.75415 72.1414 9.08911V15.3182H74.2797C74.4371 15.3182 74.5749 15.3152 74.6995 15.3064C74.8208 15.3005 74.9291 15.2888 75.0275 15.2712C75.2111 15.2477 75.3718 15.2095 75.5128 15.1536C75.6506 15.0831 75.7752 14.9862 75.8802 14.8598C75.9392 14.7893 76.0048 14.7129 76.0769 14.6248C76.1458 14.5307 76.2114 14.4338 76.2737 14.3309L79.7894 8.77178C79.8484 8.66306 79.9337 8.56904 80.0387 8.48971C80.1338 8.4045 80.3043 8.36042 80.5503 8.36042H82.8591C83.1379 8.36042 83.3117 8.47795 83.3838 8.71301C83.4166 8.89518 83.397 9.06266 83.3182 9.21839L79.4877 15.2477C79.2516 15.6002 79.0417 15.9146 78.858 16.1879C78.7793 16.2907 78.7039 16.3877 78.635 16.4817C78.5629 16.5699 78.4907 16.6521 78.412 16.7285C78.6481 16.9254 78.8777 17.1634 79.1073 17.4455C79.3434 17.7217 79.5795 18.0302 79.8157 18.3739Z" fill="white"/>
<path d="M104.683 13.3319V13.4612C104.683 13.4465 104.683 13.4347 104.683 13.4259C104.683 13.4201 104.683 13.4112 104.683 13.4024C104.683 13.3877 104.683 13.376 104.683 13.3672C104.683 13.3613 104.683 13.3495 104.683 13.3319ZM105.129 24.6265C105.224 24.7382 105.253 24.9027 105.221 25.1201C105.175 25.4022 104.998 25.5432 104.683 25.5432H102.125C101.921 25.5432 101.761 25.5021 101.639 25.414C101.593 25.3904 101.551 25.3522 101.508 25.2964C101.472 25.2347 101.433 25.176 101.39 25.1201L97.1791 18.4444H92.2728V24.8146C92.2728 25.1378 92.1875 25.3405 92.0235 25.4257C91.8661 25.505 91.7284 25.5432 91.6169 25.5432H89.5048C89.3999 25.5432 89.2589 25.505 89.085 25.4257C88.9178 25.3405 88.8358 25.1378 88.8358 24.8146V16.0703C88.8358 15.7501 88.9178 15.5503 89.085 15.4709C89.2589 15.3945 89.3999 15.3534 89.5048 15.3534H99.6191C100.203 15.3534 100.616 15.2006 100.852 14.895C101.095 14.5895 101.22 14.0929 101.22 13.4024C101.22 12.7061 101.095 12.2036 100.852 11.898C100.616 11.5925 100.203 11.4397 99.6191 11.4397H89.5048C89.3999 11.4397 89.2589 11.4044 89.085 11.3339C88.9178 11.2575 88.8358 11.0577 88.8358 10.7345V9.08908C88.8358 8.75413 88.9178 8.54845 89.085 8.47793C89.2589 8.40154 89.3999 8.3604 89.5048 8.3604H100.223C101.823 8.3604 102.968 8.80408 103.66 9.68849C104.322 10.5523 104.663 11.7893 104.683 13.4024C104.663 15.0096 104.322 16.2437 103.66 17.1046C103.072 17.8274 102.207 18.2505 101.062 18.3739L105.129 24.6265Z" fill="white"/>
<path d="M122.594 10.2996L129.114 24.7323C129.209 24.9203 129.235 25.0849 129.193 25.2259C129.173 25.2817 129.13 25.3493 129.061 25.4257C128.989 25.505 128.865 25.5432 128.681 25.5432H126.189C125.864 25.5432 125.641 25.3904 125.519 25.0849L119.747 12.1919C119.738 12.1625 119.734 12.1449 119.734 12.1449H119.642C119.642 12.1449 119.636 12.1507 119.629 12.1566C119.62 12.1654 119.606 12.186 119.59 12.2154L116.612 18.9616H119.498C119.82 18.9616 120.043 19.0997 120.167 19.3729L121.007 21.2299C121.085 21.465 121.053 21.6648 120.915 21.8293C120.79 22.0262 120.59 22.1231 120.312 22.1231H115.222L113.897 25.1084C113.772 25.3993 113.556 25.5432 113.241 25.5432H110.683C110.499 25.5432 110.371 25.505 110.302 25.4257C110.23 25.3493 110.187 25.2817 110.171 25.2259C110.125 25.1025 110.145 24.938 110.224 24.7323L116.704 10.2996C117.019 9.56508 117.36 9.05383 117.727 8.77176C117.78 8.74825 117.835 8.71887 117.898 8.67773C117.957 8.63072 118.019 8.59546 118.081 8.57196C118.544 8.27519 119.078 8.12534 119.682 8.12534C120.318 8.12534 120.892 8.30164 121.4 8.65423C121.915 9.00094 122.266 9.44168 122.45 9.98231C122.476 10.0234 122.502 10.0734 122.529 10.1351C122.555 10.1909 122.574 10.2468 122.594 10.2996Z" fill="white"/>
<path d="M148.122 8.3604C148.207 8.3604 148.335 8.40154 148.503 8.47793C148.676 8.54845 148.765 8.75413 148.765 9.08908V10.7345C148.765 11.0577 148.676 11.2575 148.503 11.3339C148.335 11.4044 148.207 11.4397 148.122 11.4397H134.755C134.656 11.4397 134.525 11.4015 134.361 11.3221C134.204 11.2369 134.125 11.0342 134.125 10.711V9.11259C134.125 8.77763 134.204 8.56902 134.361 8.48968C134.525 8.40447 134.656 8.3604 134.755 8.3604H148.122ZM148.004 15.3299C148.089 15.3299 148.217 15.374 148.384 15.4592C148.558 15.5473 148.647 15.7501 148.647 16.0703V17.704C148.647 18.0272 148.558 18.227 148.384 18.3034C148.217 18.3827 148.089 18.4209 148.004 18.4209H137.614C137.614 18.4209 137.608 18.5737 137.601 18.8793C137.591 19.1849 137.588 19.5815 137.588 20.0664C137.588 20.5541 137.582 21.0712 137.575 21.6177C137.565 22.1672 137.562 22.6843 137.562 23.1691C137.562 23.6569 137.562 24.0506 137.562 24.3562C137.562 24.6618 137.562 24.8146 137.562 24.8146C137.562 25.1378 137.473 25.3405 137.299 25.4257C137.132 25.505 137.001 25.5432 136.906 25.5432H134.768C134.679 25.5432 134.548 25.505 134.374 25.4257C134.207 25.3405 134.125 25.1378 134.125 24.8146L134.164 16.7755C134.197 16.6756 134.233 16.5816 134.269 16.4935C134.312 16.3994 134.354 16.3142 134.4 16.2349C134.774 15.6943 135.309 15.4004 136.001 15.3534L148.004 15.3299Z" fill="white"/>
<path d="M169.711 8.3604C169.822 8.3604 169.963 8.40154 170.131 8.47793C170.305 8.54845 170.393 8.74531 170.393 9.06558V10.6875C170.393 11.0401 170.305 11.2575 170.131 11.3339C169.963 11.4044 169.822 11.4397 169.711 11.4397H163.742V24.8145C163.742 25.1378 163.657 25.3376 163.493 25.4139C163.335 25.4845 163.198 25.5197 163.086 25.5197H160.948C160.859 25.5197 160.728 25.4845 160.554 25.4139C160.387 25.3376 160.305 25.1378 160.305 24.8145V11.4397H154.323C154.218 11.4397 154.077 11.4044 153.903 11.3339C153.736 11.2575 153.654 11.0401 153.654 10.6875V9.06558C153.654 8.74531 153.736 8.54845 153.903 8.47793C154.077 8.40154 154.218 8.3604 154.323 8.3604H169.711Z" fill="white"/>
<mask id="mask0_340_3" style="mask-type:luminance" maskUnits="userSpaceOnUse" x="51" y="28" width="121" height="10">
<path d="M51.1677 28.8132H171.227V37.0873H51.1677V28.8132Z" fill="white"/>
</mask>
<g mask="url(#mask0_340_3)">
<mask id="mask1_340_3" style="mask-type:luminance" maskUnits="userSpaceOnUse" x="48" y="29" width="126" height="10">
<path d="M48.8852 35.2331L173.277 29.2949L173.444 32.0833L49.0525 38.0186L48.8852 35.2331Z" fill="white"/>
</mask>
<g mask="url(#mask1_340_3)">
<mask id="mask2_340_3" style="mask-type:luminance" maskUnits="userSpaceOnUse" x="48" y="29" width="126" height="9">
<path d="M48.9612 36.4496C48.9775 36.7728 49.1415 37.0755 49.4072 37.29C49.6761 37.5044 50.0303 37.6161 50.3878 37.6014L172.067 31.7925C172.424 31.7749 172.762 31.6309 173.005 31.39C173.244 31.149 173.369 30.8346 173.349 30.5114C173.33 30.1882 173.169 29.8885 172.903 29.6711C172.634 29.4566 172.28 29.345 171.923 29.3596L50.2435 35.1685C49.886 35.1862 49.5482 35.3302 49.3055 35.5711C49.0661 35.812 48.9415 36.1264 48.9612 36.4496Z" fill="white"/>
</mask>
<g mask="url(#mask2_340_3)">
<mask id="mask3_340_3" style="mask-type:luminance" maskUnits="userSpaceOnUse" x="48" y="29" width="126" height="9">
<path d="M48.8851 35.2332L173.276 29.295L173.411 31.5251L49.0196 37.4633L48.8851 35.2332Z" fill="white"/>
</mask>
<g mask="url(#mask3_340_3)">
<mask id="mask4_340_3" style="mask-type:luminance" maskUnits="userSpaceOnUse" x="48" y="29" width="126" height="9">
<path d="M48.8851 35.2332L173.276 29.295L173.411 31.5251L49.0196 37.4633L48.8851 35.2332Z" fill="white"/>
</mask>
<g mask="url(#mask4_340_3)">
<mask id="mask5_340_3" style="mask-type:luminance" maskUnits="userSpaceOnUse" x="48" y="29" width="126" height="9">
<path d="M48.8851 35.2332L173.276 29.295L173.411 31.5251L49.0195 37.4633L48.8851 35.2332Z" fill="white"/>
</mask>
<g mask="url(#mask5_340_3)">
<path d="M111.204 33.9697C107.301 34.196 103.402 34.3958 99.499 34.6544C96.2391 34.8718 92.989 35.1832 89.7258 35.4036C86.2167 35.6416 82.7075 35.8561 79.1918 36.0206C73.9904 36.2616 68.7857 36.4643 63.581 36.6524C61.0852 36.7405 58.5796 36.7816 56.0806 36.7934C54.8278 36.8022 53.5782 36.6935 52.3287 36.6377C52.0893 36.6289 51.8532 36.623 51.6203 36.5907C51.5121 36.576 51.417 36.4996 51.3153 36.4496C51.4137 36.3909 51.5055 36.288 51.6072 36.2792C52.168 36.2322 52.7288 36.2057 53.2929 36.1793C55.8871 36.0735 58.4845 35.9736 61.0786 35.8649C61.6952 35.8414 62.3118 35.7944 62.9283 35.7562C64.883 35.6328 66.8376 35.5006 68.7955 35.386C69.8187 35.3243 70.8518 35.2978 71.875 35.2479C76.1155 35.0451 80.356 34.8424 84.5933 34.6279C85.9805 34.5574 87.3612 34.4634 88.7419 34.3576C91.3197 34.1578 93.8974 33.9433 96.4752 33.7435C97.423 33.6671 98.3741 33.5995 99.3252 33.5437C106.025 33.147 112.722 32.7445 119.422 32.3596C124.178 32.0863 128.933 31.8219 133.692 31.5839C136.083 31.4664 138.477 31.4429 140.868 31.3253C143.35 31.2019 145.849 31.102 148.319 30.8435C153.711 30.2793 159.135 29.9796 164.563 29.7357C165.976 29.674 167.396 29.7005 168.816 29.6652C169.341 29.6505 169.866 29.5624 170.39 29.533C170.545 29.5242 170.751 29.5624 170.846 29.6447C170.932 29.7181 170.958 29.915 170.896 30.0002C170.823 30.1001 170.633 30.1618 170.479 30.1912C170.026 30.2764 169.574 30.3469 169.118 30.4057C168.721 30.4556 168.324 30.4938 167.924 30.5114C162.844 30.7612 157.758 30.9698 152.677 31.2607C149.08 31.4693 145.489 31.7984 141.897 32.0599C140.366 32.1745 138.828 32.2479 137.293 32.3478C134.65 32.5271 132.003 32.7151 129.36 32.8973C126.867 33.0706 124.375 33.2704 121.876 33.4056C118.321 33.6025 114.762 33.7523 111.204 33.9227C111.207 33.9374 111.207 33.9551 111.207 33.9697H111.204Z" fill="white"/>
</g>
</g>
</g>
</g>
</g>
</g>
<path d="M34.143 8.48028C34.3004 8.48028 34.4906 8.5361 34.7202 8.64482C34.9563 8.74766 35.0744 9.02973 35.0744 9.49103V23.6769C35.0744 24.5172 35.0383 25.2929 34.9695 26.0039C34.9071 26.7179 34.7989 27.3643 34.6415 27.9432C34.3332 29.1743 33.8577 30.1469 33.2116 30.8579C32.5721 31.6101 31.7096 32.1625 30.6273 32.5151C29.6303 32.8383 28.3775 32.997 26.8754 32.997H19.398C17.8927 32.997 16.6431 32.8383 15.6461 32.5151C15.1378 32.3447 14.6623 32.1214 14.2162 31.8452C13.7702 31.5631 13.3931 31.234 13.0881 30.8579C12.3961 30.0998 11.9074 29.1273 11.6188 27.9432C11.468 27.3643 11.3597 26.7179 11.2909 26.0039C11.2285 25.2929 11.199 24.5172 11.199 23.6769V9.49103C11.199 9.02973 11.3171 8.74766 11.5532 8.64482C11.7959 8.5361 11.9992 8.48028 12.1567 8.48028H15.1739C15.3313 8.48028 15.5215 8.5361 15.7511 8.64482C15.9872 8.74766 16.1053 9.02973 16.1053 9.49103V24.1587C16.1053 24.5995 16.1217 25.0108 16.1578 25.3928C16.1906 25.7777 16.2299 26.1097 16.2758 26.3918C16.407 26.9266 16.5939 27.3732 16.8399 27.7316C17.1023 28.0313 17.4335 28.2488 17.8369 28.3898C18.0534 28.4456 18.3092 28.4926 18.5978 28.5308C18.8864 28.572 19.2078 28.5896 19.5685 28.5896H26.7443C27.0919 28.5896 27.4133 28.572 27.7019 28.5308C27.9905 28.4926 28.243 28.4456 28.4628 28.3898C28.8629 28.2488 29.1974 28.0313 29.4598 27.7316C29.5713 27.5759 29.6762 27.3849 29.7746 27.1557C29.8795 26.9207 29.9517 26.668 29.9976 26.3918C30.0402 26.1097 30.0763 25.7777 30.1026 25.3928C30.1353 25.0108 30.155 24.5995 30.155 24.1587V9.49103C30.155 9.02973 30.2731 8.74766 30.5092 8.64482C30.7454 8.5361 30.9356 8.48028 31.0864 8.48028H34.143Z" fill="white"/>
<path d="M58.3226 8.48028C60.5856 8.48028 62.2122 9.11494 63.2027 10.3843C64.18 11.5772 64.6719 13.3695 64.6719 15.7671V15.5908C64.6719 17.9502 64.18 19.7455 63.2027 20.9737C62.2122 22.2283 60.5856 22.8542 58.3226 22.8542L46.9622 22.8777V31.9862C46.9622 32.4416 46.8375 32.7325 46.5949 32.8559C46.3587 32.9735 46.1685 33.0322 46.0308 33.0322H42.9742C42.843 33.0322 42.6528 32.9735 42.4101 32.8559C42.174 32.7325 42.0559 32.4416 42.0559 31.9862V19.4811C42.0559 19.0286 42.174 18.7465 42.4101 18.6348C42.6528 18.5261 42.843 18.4703 42.9742 18.4703H57.4568C58.303 18.4703 58.8933 18.2558 59.2278 17.8239C59.5754 17.3861 59.7525 16.6692 59.7525 15.6731C59.7525 14.6858 59.5754 13.9748 59.2278 13.5341C58.8933 13.0963 58.303 12.8759 57.4568 12.8759H42.9742C42.843 12.8759 42.6528 12.8259 42.4101 12.7231C42.174 12.6144 42.0559 12.3294 42.0559 11.8651V9.51454C42.0559 9.03854 42.174 8.74766 42.4101 8.64482C42.6528 8.5361 42.843 8.48028 42.9742 8.48028H58.3226Z" fill="white"/>
</svg>
